<?xml version="1.0" encoding="UTF-8"?>
<svg xmlns="http://www.w3.org/2000/svg" width="0" height="0">
  <defs>
    <pattern id="dirt" width="32" height="32" patternUnits="userSpaceOnUse">
      <rect width="32" height="32" fill="#7a4a26"/>
      <rect x="0" y="0" width="4" height="4" fill="#8b5a30"/>
      <rect x="8" y="2" width="4" height="4" fill="#6a3d20"/>
      <rect x="16" y="0" width="4" height="4" fill="#9a6438"/>
      <rect x="24" y="4" width="4" height="4" fill="#6a3d20"/>
      <rect x="2" y="10" width="4" height="4" fill="#9a6438"/>
      <rect x="12" y="8" width="4" height="4" fill="#6a3d20"/>
      <rect x="20" y="12" width="4" height="4" fill="#8b5a30"/>
      <rect x="28" y="10" width="4" height="4" fill="#5a3318"/>
      <rect x="4" y="18" width="4" height="4" fill="#6a3d20"/>
      <rect x="14" y="20" width="4" height="4" fill="#9a6438"/>
      <rect x="22" y="18" width="4" height="4" fill="#5a3318"/>
      <rect x="0" y="26" width="4" height="4" fill="#8b5a30"/>
      <rect x="10" y="28" width="4" height="4" fill="#6a3d20"/>
      <rect x="20" y="26" width="4" height="4" fill="#9a6438"/>
      <rect x="28" y="28" width="4" height="4" fill="#5a3318"/>
    </pattern>
    <pattern id="grass" width="32" height="32" patternUnits="userSpaceOnUse">
      <rect width="32" height="32" fill="#6ab04a"/>
      <rect x="2" y="0" width="4" height="6" fill="#5aa53a"/>
      <rect x="8" y="0" width="4" height="4" fill="#7bbf5a"/>
      <rect x="14" y="0" width="4" height="8" fill="#4f8b34"/>
      <rect x="20" y="0" width="4" height="5" fill="#7bbf5a"/>
      <rect x="26" y="0" width="4" height="6" fill="#5aa53a"/>
      <rect x="0" y="10" width="4" height="4" fill="#5aa53a"/>
      <rect x="10" y="12" width="4" height="3" fill="#7bbf5a"/>
      <rect x="22" y="10" width="4" height="3" fill="#4f8b34"/>
    </pattern>
    <pattern id="stone" width="32" height="32" patternUnits="userSpaceOnUse">
      <rect width="32" height="32" fill="#7d7d7d"/>
      <rect x="0" y="0" width="6" height="4" fill="#9a9a9a"/>
      <rect x="10" y="2" width="4" height="4" fill="#5a5a5a"/>
      <rect x="20" y="0" width="6" height="4" fill="#888"/>
      <rect x="2" y="10" width="6" height="4" fill="#666"/>
      <rect x="14" y="10" width="6" height="4" fill="#a0a0a0"/>
      <rect x="22" y="10" width="6" height="4" fill="#777"/>
      <rect x="0" y="20" width="6" height="4" fill="#5a5a5a"/>
      <rect x="12" y="20" width="6" height="4" fill="#9a9a9a"/>
      <rect x="22" y="20" width="6" height="4" fill="#666"/>
    </pattern>
    <pattern id="oak" width="32" height="32" patternUnits="userSpaceOnUse">
      <rect width="32" height="32" fill="#9c6a3a"/>
      <rect x="0" y="6" width="32" height="2" fill="#6e4520"/>
      <rect x="0" y="14" width="32" height="2" fill="#6e4520"/>
      <rect x="0" y="22" width="32" height="2" fill="#6e4520"/>
      <rect x="6" y="0" width="2" height="32" fill="#7c5028"/>
      <rect x="20" y="0" width="2" height="32" fill="#7c5028"/>
    </pattern>
  </defs>
</svg>
